<svg height="512pt" viewBox="-96 0 512 512" width="512pt" xmlns="http://www.w3.org/2000/svg"><path d="m202.667969 160 20.757812-103.765625c.382813-1.917969.574219-3.902344.574219-5.867187v-9.75c0-16.53125-13.417969-29.949219-29.953125-29.949219-13.738281 0-25.726563 9.34375-29.054687 22.675781l-47.660157 190.65625-37.011719-185.066406c-3.285156-16.425782-17.726562-28.265625-34.476562-28.265625-19.433594 0-35.175781 15.742187-35.175781 35.15625v4.011719c0 2.324218.234375 4.648437.679687 6.910156l41.984375 209.921875-12.5 12.5c-19.308593 19.308593-30.164062 45.503906-30.164062 72.832031 0 82.476562 66.855469 149.332031 149.332031 149.332031s149.332031-66.855469 149.332031-149.332031v-96zm0 0" fill="#ffcc80"/><path d="m277.332031 181.332031c-17.664062 0-32 14.335938-32 32v42.667969c0 17.664062 14.335938 32 32 32 17.664063 0 32-14.335938 32-32v-42.667969c0-17.664062-14.335937-32-32-32zm0 0" fill="#ffb74d"/><path d="m213.332031 160c-17.664062 0-32 14.335938-32 32v56l20.226563 37.695312c3.648437 1.453126 7.613281 2.304688 11.773437 2.304688 17.664063 0 32-14.335938 32-32v-64c0-17.664062-14.335937-32-32-32zm0 0" fill="#ffb74d"/><path d="m277.332031 298.667969c-23.53125 0-42.664062-19.136719-42.664062-42.667969v-42.667969c0-23.53125 19.132812-42.664062 42.664062-42.664062s42.667969 19.132812 42.667969 42.664062v42.667969c0 23.53125-19.136719 42.667969-42.667969 42.667969zm0-106.667969c-11.753906 0-21.332031 9.558594-21.332031 21.332031v42.667969c0 11.777344 9.578125 21.332031 21.332031 21.332031 11.757813 0 21.335938-9.554687 21.335938-21.332031v-42.667969c0-11.773437-9.578125-21.332031-21.335938-21.332031zm0 0"/><path d="m213.332031 298.667969c-5.332031 0-10.621093-1.046875-15.722656-3.074219-5.480469-2.195312-8.148437-8.40625-5.949219-13.867188 2.195313-5.480468 8.402344-8.042968 13.84375-5.949218 14.1875 5.714844 29.164063-5.398438 29.164063-19.777344v-64c0-11.777344-9.578125-21.332031-21.335938-21.332031-11.753906 0-21.332031 9.554687-21.332031 21.332031v56c0 5.886719-4.777344 10.667969-10.667969 10.667969-5.886719 0-10.664062-4.78125-10.664062-10.667969v-56c0-23.53125 19.132812-42.667969 42.664062-42.667969s42.667969 19.136719 42.667969 42.667969v64c0 23.53125-19.136719 42.667969-42.667969 42.667969zm0 0"/><path d="m160 512c-88.234375 0-160-71.765625-160-160 0-29.910156 12.136719-59.222656 33.300781-80.382812l8.449219-8.449219-40.855469-204.332031c-.597656-2.941407-.894531-5.949219-.894531-8.980469v-4.03125c0-25.257813 20.566406-45.824219 45.824219-45.824219 21.78125 0 40.683593 15.507812 44.949219 36.84375l27.710937 138.558594 36.160156-144.617188c4.523438-18.132812 20.738281-30.785156 39.402344-30.785156 22.402344 0 40.621094 18.21875 40.621094 40.617188v9.75c0 2.644531-.277344 5.335937-.789063 7.957031l-20.757812 103.765625c-1.152344 5.78125-6.722656 9.558594-12.546875 8.386718-5.78125-1.152343-9.511719-6.765624-8.359375-12.546874l20.753906-103.742188c.238281-1.28125.363281-2.539062.363281-3.820312v-9.75c0-10.644532-8.640625-19.285157-19.285156-19.285157-8.875 0-16.554687 5.996094-18.707031 14.613281l-47.660156 190.65625c-1.214844 4.84375-5.929688 7.851563-10.601563 8.066407-4.992187-.128907-9.238281-3.691407-10.21875-8.578125l-36.992187-185.066406c-2.28125-11.390626-12.394532-19.691407-24.042969-19.691407-13.503907 0-24.492188 11.007813-24.492188 24.492188v4.011719c0 1.597656.152344 3.199218.46875 4.796874l41.984375 209.941407c.707032 3.480469-.402344 7.105469-2.921875 9.625l-12.5 12.5c-17.175781 17.195312-27.03125 40.980469-27.03125 65.300781 0 76.457031 62.210938 138.667969 138.667969 138.667969s138.667969-62.210938 138.667969-138.667969v-96c0-5.886719 4.777343-10.667969 10.664062-10.667969 5.890625 0 10.667969 4.78125 10.667969 10.667969v96c0 88.234375-71.765625 160-160 160zm0 0"/><path d="m96 362.667969c-2.730469 0-5.460938-1.046875-7.550781-3.117188-4.160157-4.160156-4.160157-10.921875 0-15.082031l19.6875-19.691406c16.832031-16.832032 39.234375-26.109375 63.019531-26.109375 11.5 0 20.84375-9.34375 20.84375-20.84375 0-8.640625-5.417969-16.46875-13.503906-19.519531l-19.457032-7.296876c-25.277343-9.449218-53.738281-6.1875-76.160156 8.769532l-23.613281 15.742187c-4.886719 3.242188-11.542969 1.941407-14.785156-2.964843-3.265625-4.886719-1.941407-11.519532 2.964843-14.785157l23.617188-15.742187c28.136719-18.753906 63.847656-22.890625 95.488281-10.988282l19.453125 7.296876c16.363282 6.121093 27.371094 21.996093 27.371094 39.488281 0 23.253906-18.921875 42.175781-42.175781 42.175781-18.109375 0-35.136719 7.039062-47.933594 19.863281l-19.691406 19.6875c-2.113281 2.070313-4.84375 3.117188-7.574219 3.117188zm0 0"/></svg>